<svg width="82" height="110" viewBox="0 0 82 110" fill="none" xmlns="http://www.w3.org/2000/svg">
<path d="M80.2898 48.1543L40.9758 32.1699C40.6842 32.0516 40.358 32.0516 40.0664 32.1699L0.752342 48.1543C0.529929 48.2448 0.33954 48.3995 0.205523 48.5987C0.0715056 48.7979 -4.83561e-05 49.0326 2.45179e-08 49.2727V62.3094L40.5211 46.2559L81.0422 62.3094V49.2727C81.0421 49.0326 80.9705 48.798 80.8365 48.5988C80.7025 48.3996 80.5122 48.2448 80.2898 48.1543Z" fill="#433F43"/>
<path d="M40.521 55.9653L-6.10352e-05 72.8622V108.473C-6.10352e-05 108.631 0.0311647 108.788 0.0918434 108.935C0.152522 109.081 0.24146 109.214 0.353579 109.326C0.465699 109.439 0.598804 109.528 0.745295 109.588C0.891786 109.649 1.0488 109.68 1.20736 109.68H79.8351C79.9937 109.68 80.1507 109.649 80.2972 109.588C80.4436 109.528 80.5768 109.439 80.6889 109.326C80.801 109.214 80.8899 109.081 80.9506 108.935C81.0113 108.788 81.0425 108.631 81.0425 108.473V72.8622L40.521 55.9653Z" fill="#433F43"/>
<path d="M2.45179e-08 108.473C2.45179e-08 108.631 0.0312258 108.788 0.0919044 108.935C0.152583 109.081 0.241521 109.214 0.35364 109.326C0.46576 109.439 0.598865 109.527 0.745356 109.588C0.891847 109.649 1.04886 109.68 1.20742 109.68H40.5211V56.3871L2.45179e-08 72.8621V108.473ZM40.5211 32.0812C40.3668 32.0812 40.2121 32.1109 40.0664 32.1703L0.752342 48.1547C0.529929 48.2451 0.33954 48.3998 0.205523 48.5991C0.0715056 48.7983 -4.83561e-05 49.0329 2.45179e-08 49.273V62.3098L40.5211 45.8344V32.0812Z" fill="#685E68"/>
<path d="M10.9879 43.993L0.752342 48.1547C0.529929 48.2451 0.33954 48.3999 0.205523 48.5991C0.0715056 48.7983 -4.83561e-05 49.033 2.45179e-08 49.2731V62.3098L10.9879 57.8422V43.993ZM10.9879 108.473V68.3945L2.45179e-08 72.8621V108.473C2.45179e-08 108.631 0.0312258 108.788 0.0919044 108.935C0.152583 109.081 0.241521 109.214 0.35364 109.326C0.46576 109.439 0.598865 109.528 0.745356 109.588C0.891847 109.649 1.04886 109.68 1.20742 109.68H12.1953C12.0367 109.68 11.8797 109.649 11.7333 109.588C11.5868 109.528 11.4537 109.439 11.3415 109.326C11.2294 109.214 11.1405 109.081 11.0798 108.935C11.0191 108.788 10.9879 108.631 10.9879 108.473Z" fill="#554E56"/>
<path d="M50.5293 60.1382V78.5707C50.5293 78.7963 50.5944 79.0171 50.7169 79.2066C50.8393 79.3961 51.0138 79.5463 51.2195 79.639L58.1836 82.7777C58.959 83.1273 59.8371 82.5601 59.8371 81.7093V64.0195L50.5293 60.1382Z" fill="#FED402"/>
<path d="M40.5211 45.8344L0 62.3093V72.8617L40.5211 56.3867L81.0422 72.8617V62.3093L40.5211 45.8344Z" fill="#FAC600"/>
<path d="M0 62.3093V72.8617L40.5211 56.3867V45.8344L0 62.3093Z" fill="#FED402"/>
<path d="M10.9879 57.8422L0 62.3094V72.8617L10.9879 68.3945V57.8422Z" fill="#FAC600"/>
<path d="M39.4984 0.542578L23.2367 24.5734C22.498 25.6652 23.7547 26.9996 24.8887 26.3273L40.6402 16.9895C40.8369 16.8728 41.0621 16.8131 41.2908 16.817C41.5194 16.8209 41.7425 16.8881 41.9351 17.0113L55.8515 25.9129C56.9812 26.6355 58.291 25.2918 57.5394 24.1809L41.5433 0.542578C41.0539 -0.180859 39.9883 -0.180859 39.4984 0.542578Z" fill="#FD4755"/>
<path d="M45.573 6.49688L41.5437 0.542578C41.0543 -0.180859 39.9883 -0.180859 39.4988 0.542578L23.2371 24.5734C22.4984 25.6652 23.7551 26.9996 24.889 26.3273L37.0207 19.1352L45.573 6.49688Z" fill="#FB2B3A"/>
</svg>
