<svg width="228" height="106" viewBox="0 0 228 106" fill="none" xmlns="http://www.w3.org/2000/svg">
<path d="M170.903 124.618C168.715 126.565 164.723 126.037 163 125.53C163.608 118.127 166.405 99.1841 172.727 82.6341C179.05 66.0842 223.998 48.155 245.682 41.2592L270 37C265.44 49.4733 208.293 82.3299 194.006 95.7159C179.719 109.102 173.639 122.184 170.903 124.618Z" fill="url(#paint0_linear_3719_2884)"/>
<path d="M116.896 16.4333C99.0188 27.9088 89.5165 47.4619 87 55.804L163.099 126C167.528 114.809 180.553 88.0942 197.223 70.7588C213.892 53.4235 252.686 41.1545 270 37.1869C238.795 25.691 174.876 2.272 168.837 0.56288C161.287 -1.57352 139.243 2.08888 116.896 16.4333Z" fill="url(#paint1_linear_3719_2884)"/>
<path d="M92 60.5C96.8333 44.1667 118.1 10.6 164.5 7L241 36.5C221 40.3333 176.5 60.9 158.5 112.5" stroke="url(#paint2_linear_3719_2884)" stroke-width="3"/>
<path d="M106 52C110.167 41.8333 127 19.9 161 13.5" stroke="url(#paint3_linear_3719_2884)"/>
<path d="M120.411 61.3731C123.858 50.9404 139.119 27.8852 172.589 19.1269" stroke="url(#paint4_linear_3719_2884)"/>
<path d="M133.719 69.2475C137.015 58.7661 151.941 35.493 185.281 26.2525" stroke="url(#paint5_linear_3719_2884)"/>
<path d="M147.003 77.0833C150.161 66.5596 164.781 43.0931 197.998 33.4167" stroke="url(#paint6_linear_3719_2884)"/>
<path d="M161.014 85.7121C163.694 75.0566 177.24 50.954 209.986 39.7879" stroke="url(#paint7_linear_3719_2884)"/>
<path d="M86.7387 54.294C69.4518 37.6166 31.0434 35.2601 14 36.1664L114.434 103.238L160.999 112C161.243 98.7065 111.594 67.9904 86.7387 54.294Z" fill="url(#paint8_linear_3719_2884)"/>
<path fill-rule="evenodd" clip-rule="evenodd" d="M82.7133 50.9257C84.1531 51.9777 85.5001 53.0991 86.7386 54.294C89.2146 55.6583 91.9366 57.1916 94.8308 58.8597C78.8211 52.2447 69.6453 49.6084 63.8389 48.7332C59.3175 48.0517 56.9856 48.4163 54.8219 48.8592L120.678 95.2899C128.84 91.8525 137.323 90.8144 144.727 91.9681C146.556 93.4563 148.277 94.9217 149.865 96.3527C141.927 93.4776 131.358 93.8489 121.105 98.3723L120.329 98.7148L46.8237 46.8909L50.8577 46.5067C51.6587 46.4304 52.4556 46.2653 53.3309 46.0839C55.775 45.5774 58.8297 44.9443 64.286 45.7667C68.5115 46.4036 74.2897 47.8965 82.7133 50.9257Z" fill="url(#paint9_linear_3719_2884)"/>
<path d="M141 88.3129C137.5 85.8129 129.5 83.5 120.5 87.5" stroke="url(#paint10_linear_3719_2884)"/>
<path d="M127 78.6553C123.5 76.1553 114 74.8424 107 77.3424" stroke="url(#paint11_linear_3719_2884)"/>
<path d="M116.5 72.0237C113 69.5237 103 69.5237 95 71.0237" stroke="url(#paint12_linear_3719_2884)"/>
<path d="M108 66.3129C104.5 63.8129 95 62 86.5 65" stroke="url(#paint13_linear_3719_2884)"/>
<path d="M97 60C93.5 57.5 85 56 77.5 58.5" stroke="url(#paint14_linear_3719_2884)"/>
<path d="M0.00254033 40.6379C-0.481817 41.8585 68.418 86.7124 102.928 108.987C113.826 109.231 120.184 106.037 122 104.41C87.9941 82.4406 19.4979 38.2579 17.5605 37.2815C15.1387 36.061 0.607987 39.1123 0.00254033 40.6379Z" fill="url(#paint15_linear_3719_2884)"/>
<path d="M148.374 101.022C159.673 101.267 163.499 117.463 164 125.53C161.836 128.472 157.69 128.186 155.887 127.675C152.882 123.59 143.807 115.237 131.547 114.501C119.287 113.766 107.407 109.906 103 108.068C110.212 108.313 118.626 105.106 121.931 103.472C127.941 103.779 134.251 100.715 148.374 101.022Z" fill="url(#paint16_linear_3719_2884)"/>
<defs>
<linearGradient id="paint0_linear_3719_2884" x1="216.5" y1="37" x2="216.5" y2="126" gradientUnits="userSpaceOnUse">
<stop stop-color="#0F9283"/>
<stop offset="1" stop-color="#57D6C5"/>
</linearGradient>
<linearGradient id="paint1_linear_3719_2884" x1="117.5" y1="71.5" x2="290" y2="63" gradientUnits="userSpaceOnUse">
<stop stop-color="white" stop-opacity="0.9"/>
<stop offset="1" stop-color="white" stop-opacity="0.75"/>
</linearGradient>
<linearGradient id="paint2_linear_3719_2884" x1="166.5" y1="7" x2="166.5" y2="112.5" gradientUnits="userSpaceOnUse">
<stop stop-color="#0F9283"/>
<stop offset="1" stop-color="#57D6C5"/>
</linearGradient>
<linearGradient id="paint3_linear_3719_2884" x1="133.5" y1="13.5" x2="133.5" y2="52" gradientUnits="userSpaceOnUse">
<stop stop-color="#50D0BE"/>
<stop offset="1" stop-color="white" stop-opacity="0"/>
</linearGradient>
<linearGradient id="paint4_linear_3719_2884" x1="145.156" y1="21.047" x2="147.844" y2="59.453" gradientUnits="userSpaceOnUse">
<stop stop-color="#50D0BE"/>
<stop offset="1" stop-color="white" stop-opacity="0"/>
</linearGradient>
<linearGradient id="paint5_linear_3719_2884" x1="157.879" y1="28.5684" x2="161.121" y2="66.9316" gradientUnits="userSpaceOnUse">
<stop stop-color="#50D0BE"/>
<stop offset="1" stop-color="white" stop-opacity="0"/>
</linearGradient>
<linearGradient id="paint6_linear_3719_2884" x1="170.628" y1="36.0913" x2="174.372" y2="74.4088" gradientUnits="userSpaceOnUse">
<stop stop-color="#50D0BE"/>
<stop offset="1" stop-color="white" stop-opacity="0"/>
</linearGradient>
<linearGradient id="paint7_linear_3719_2884" x1="182.765" y1="43.6953" x2="188.235" y2="81.8047" gradientUnits="userSpaceOnUse">
<stop stop-color="#50D0BE"/>
<stop offset="1" stop-color="white" stop-opacity="0"/>
</linearGradient>
<linearGradient id="paint8_linear_3719_2884" x1="87.5" y1="36" x2="87.5" y2="112" gradientUnits="userSpaceOnUse">
<stop stop-color="#F0FDFA"/>
<stop offset="1" stop-color="white" stop-opacity="0.8"/>
</linearGradient>
<linearGradient id="paint9_linear_3719_2884" x1="98.3444" y1="45.3702" x2="98.3444" y2="98.7148" gradientUnits="userSpaceOnUse">
<stop stop-color="#0F9283"/>
<stop offset="1" stop-color="#57D6C5"/>
</linearGradient>
<linearGradient id="paint10_linear_3719_2884" x1="130.75" y1="85.3372" x2="130.75" y2="88.3129" gradientUnits="userSpaceOnUse">
<stop stop-color="#50D0BE"/>
<stop offset="1" stop-color="white" stop-opacity="0"/>
</linearGradient>
<linearGradient id="paint11_linear_3719_2884" x1="117" y1="76" x2="117" y2="78.6553" gradientUnits="userSpaceOnUse">
<stop stop-color="#50D0BE"/>
<stop offset="1" stop-color="white" stop-opacity="0"/>
</linearGradient>
<linearGradient id="paint12_linear_3719_2884" x1="105.75" y1="70" x2="105.75" y2="72.0237" gradientUnits="userSpaceOnUse">
<stop stop-color="#50D0BE"/>
<stop offset="1" stop-color="white" stop-opacity="0"/>
</linearGradient>
<linearGradient id="paint13_linear_3719_2884" x1="97.25" y1="63.4377" x2="97.25" y2="66.3129" gradientUnits="userSpaceOnUse">
<stop stop-color="#50D0BE"/>
<stop offset="1" stop-color="white" stop-opacity="0"/>
</linearGradient>
<linearGradient id="paint14_linear_3719_2884" x1="87.25" y1="57.2152" x2="87.25" y2="60" gradientUnits="userSpaceOnUse">
<stop stop-color="#50D0BE"/>
<stop offset="1" stop-color="white" stop-opacity="0"/>
</linearGradient>
<linearGradient id="paint15_linear_3719_2884" x1="61" y1="37" x2="61" y2="109" gradientUnits="userSpaceOnUse">
<stop stop-color="#CDFAF0"/>
<stop offset="1" stop-color="white" stop-opacity="0.25"/>
</linearGradient>
<linearGradient id="paint16_linear_3719_2884" x1="133.5" y1="101" x2="133.5" y2="128" gradientUnits="userSpaceOnUse">
<stop stop-color="#0F9283"/>
<stop offset="1" stop-color="#57D6C5"/>
</linearGradient>
</defs>
</svg>
