<svg width="32" height="32" viewBox="0 0 32 32" fill="none" xmlns="http://www.w3.org/2000/svg">
<path d="M27.625 11.2194V5.3125C27.625 4.79475 27.2052 4.375 26.6875 4.375H20.7806L16.6615 0.273188C16.2956 -0.0910625 15.7042 -0.0910625 15.3384 0.273188L11.2194 4.375H5.3125C4.79475 4.375 4.375 4.79475 4.375 5.3125V11.2194L0.273188 15.3385C-0.0910625 15.7043 -0.0910625 16.2957 0.273188 16.6616L4.375 20.7806V26.6875C4.375 27.2052 4.79475 27.625 5.3125 27.625H11.2194L15.3384 31.7268C15.5214 31.9089 15.7607 32 16 32C16.2393 32 16.4786 31.9089 16.6615 31.7268L20.7806 27.625H26.6875C27.2052 27.625 27.625 27.2052 27.625 26.6875V20.7806L31.7268 16.6616C32.0911 16.2957 32.0911 15.7043 31.7268 15.3385L27.625 11.2194ZM26.0232 19.7318C25.8482 19.9076 25.75 20.1454 25.75 20.3933V25.75H20.3934C20.1454 25.75 19.9076 25.8482 19.7319 26.0232L16 29.7394L12.2682 26.0232C12.0924 25.8482 11.8546 25.75 11.6067 25.75H6.25V20.3934C6.25 20.1454 6.15175 19.9076 5.97681 19.7319L2.26056 16L5.97681 12.2682C6.15175 12.0924 6.25 11.8546 6.25 11.6067V6.25H11.6066C11.8546 6.25 12.0924 6.15175 12.2681 5.97681L16 2.26056L19.7319 5.97681C19.9076 6.15175 20.1454 6.25 20.3934 6.25H25.75V11.6066C25.75 11.8546 25.8482 12.0924 26.0232 12.2681L29.7394 16L26.0232 19.7318Z" fill="#A0A3BD"/>
</svg>
