<svg width="196" height="131" viewBox="0 0 196 131" fill="none" xmlns="http://www.w3.org/2000/svg">
<path d="M13.1849 -61.6897C12.7034 -150.345 89.2854 -258.979 177.941 -259.461C266.597 -259.943 350.412 -152.18 350.893 -63.5242C351.365 23.2213 307.679 -11.7053 187.705 54.0669C182.377 56.9881 176.709 59.6714 170.948 61.6041C34.4454 107.396 13.6566 25.149 13.1849 -61.6897Z" fill="white" fill-opacity="0.15"/>
<path d="M1.16604 -12.6702C0.640897 -109.345 84.1503 -227.806 180.825 -228.331C277.501 -228.856 368.897 -111.346 369.423 -14.6705C369.936 79.9216 322.299 41.8357 191.473 113.557C185.662 116.743 179.482 119.669 173.2 121.776C24.3496 171.71 1.68041 82.0238 1.16604 -12.6702Z" fill="white" fill-opacity="0.15"/>
<path d="M4.09826 -125.295C3.61668 -213.951 80.1987 -322.585 168.854 -323.066C257.51 -323.548 341.325 -215.785 341.807 -127.13C342.278 -40.3841 298.592 -75.3107 178.619 -9.53848C173.29 -6.61726 167.623 -3.93396 161.861 -2.00127C25.3587 43.7906 4.56997 -38.4563 4.09826 -125.295Z" fill="white" fill-opacity="0.15"/>
</svg>
