<svg width="343" height="169" viewBox="0 0 343 169" fill="none" xmlns="http://www.w3.org/2000/svg">
<path d="M191.921 77.0625C154.14 117.343 161.738 173.309 208.891 202.059C256.043 230.809 324.902 221.461 362.683 181.18C400.464 140.899 392.866 84.934 345.714 56.1838C298.561 27.4336 229.703 36.7817 191.921 77.0625ZM331.345 162.073C319.861 174.317 303.153 182.588 284.897 185.067C266.641 187.545 248.333 184.028 234 175.288C219.667 166.549 210.483 153.304 208.469 138.466C206.454 123.628 211.775 108.414 223.259 96.1698C234.743 83.9255 251.451 75.6544 269.707 73.176C287.963 70.6976 306.271 74.215 320.604 82.9543C334.938 91.6936 344.121 104.939 346.136 119.777C348.15 134.614 342.83 149.829 331.345 162.073Z" fill="url(#paint0_linear_3712_1790)" fill-opacity="0.2"/>
<path d="M59 -4.57764e-05C3.77363 -4.57764e-05 -34.8524 38.6915 -27.2696 86.416C-19.6868 134.14 31.2345 172.832 86.4608 172.832C141.687 172.832 180.313 134.14 172.73 86.416C165.148 38.6915 114.226 -4.57764e-05 59 -4.57764e-05ZM81.4213 141.114C64.634 141.114 47.6186 135.352 34.1183 125.094C20.618 114.836 11.7387 100.923 9.43372 86.416C7.12875 71.909 11.5869 57.9962 21.8275 47.7383C32.0681 37.4803 47.2522 31.7175 64.0395 31.7175C80.8268 31.7175 97.8423 37.4803 111.343 47.7383C124.843 57.9962 133.722 71.909 136.027 86.416C138.332 100.923 133.874 114.836 123.633 125.094C113.393 135.352 98.2087 141.114 81.4213 141.114Z" fill="url(#paint1_linear_3712_1790)" fill-opacity="0.2"/>
<defs>
<linearGradient id="paint0_linear_3712_1790" x1="191.921" y1="77.0625" x2="334.717" y2="210.997" gradientUnits="userSpaceOnUse">
<stop stop-color="white"/>
<stop offset="0.421136" stop-color="white" stop-opacity="0"/>
<stop offset="1" stop-color="white" stop-opacity="0"/>
</linearGradient>
<linearGradient id="paint1_linear_3712_1790" x1="59" y1="-4.57764e-05" x2="59" y2="172.832" gradientUnits="userSpaceOnUse">
<stop stop-color="white"/>
<stop offset="0.421136" stop-color="white" stop-opacity="0"/>
<stop offset="1" stop-color="white" stop-opacity="0"/>
</linearGradient>
</defs>
</svg>
