<svg width="201" height="200" viewBox="0 0 201 200" fill="none" xmlns="http://www.w3.org/2000/svg">
<g clip-path="url(#clip0_26_4)">
<path d="M100.5 200C155.728 200 200.5 155.228 200.5 100C200.5 44.7715 155.728 0 100.5 0C45.2715 0 0.5 44.7715 0.5 100C0.5 155.228 45.2715 200 100.5 200Z" fill="#2FD2B8"/>
<path d="M31.2395 151.787C20.0734 136.92 14.0312 118.925 14.0312 100C14.0312 81.075 20.0738 63.0805 31.2395 48.2125C47.4445 21.5004 75.8051 2.98125 108.649 0.332031C105.938 0.112034 103.22 0.00126713 100.5 0C45.2715 0 0.5 44.7715 0.5 100C0.5 155.229 45.2715 200 100.5 200C103.244 200 105.961 199.885 108.649 199.668C75.8051 197.019 47.4445 178.5 31.2395 151.787Z" fill="#15AC97"/>
<path d="M100.5 181C145.235 181 181.5 144.735 181.5 100C181.5 55.2649 145.235 19 100.5 19C55.7649 19 19.5 55.2649 19.5 100C19.5 144.735 55.7649 181 100.5 181Z" fill="white"/>
<path d="M87.6914 20.4121C49.3093 26.5668 19.8906 59.9102 19.8906 100C19.8906 140.09 49.3093 173.433 87.6918 179.588C53.9984 168.825 29.5988 137.264 29.5988 100C29.5988 62.7363 53.9984 31.1754 87.6914 20.4121Z" fill="#F3F0F3"/>
<g clip-path="url(#clip1_26_4)">
<path d="M98.0703 19.0586V30.2492C98.0703 31.8676 99.3816 33.1789 101 33.1789C101.777 33.1789 102.522 32.8702 103.072 32.3208C103.621 31.7714 103.93 31.0262 103.93 30.2492V19.0586C102.957 19.0238 101.981 19 101 19C100.019 19 99.0434 19.0238 98.0703 19.0586ZM20.0586 102.93H23.1328C24.7512 102.93 26.0625 101.618 26.0625 100C26.0625 98.3816 24.7512 97.0703 23.1328 97.0703H20.0586C20.0238 98.0434 20 99.0187 20 100C20 100.981 20.0238 101.957 20.0586 102.93ZM175.937 100C175.937 100.777 176.246 101.522 176.796 102.072C177.345 102.621 178.09 102.93 178.867 102.93H181.941C181.976 101.957 182 100.981 182 100C182 99.0187 181.976 98.0434 181.941 97.0703H178.867C178.09 97.0703 177.345 97.379 176.796 97.9284C176.246 98.4778 175.937 99.223 175.937 100ZM148.25 52.7504C148.799 53.2996 149.544 53.6082 150.321 53.6082C151.098 53.6082 151.843 53.2996 152.393 52.7504L160.279 44.8641C158.948 43.434 157.566 42.052 156.136 40.7207L148.249 48.607C147.7 49.1566 147.391 49.9018 147.391 50.6788C147.391 51.4558 147.7 52.201 148.25 52.7504ZM53.7504 147.25C53.1781 146.678 52.4281 146.392 51.6785 146.392C50.9289 146.392 50.1789 146.678 49.6066 147.25L41.7203 155.136C43.0515 156.566 44.4335 157.948 45.8637 159.279L53.75 151.393C54.0221 151.121 54.2379 150.798 54.3852 150.443C54.5325 150.087 54.6083 149.706 54.6084 149.321C54.6084 148.937 54.5326 148.556 54.3854 148.2C54.2382 147.845 54.0224 147.522 53.7504 147.25ZM49.607 52.7504C50.1565 53.2998 50.9017 53.6085 51.6787 53.6085C52.4557 53.6085 53.2009 53.2998 53.7504 52.7504C54.2998 52.2009 54.6085 51.4557 54.6085 50.6787C54.6085 49.9017 54.2998 49.1565 53.7504 48.607L45.8641 40.7207C44.4339 42.0519 43.0519 43.4339 41.7207 44.8641L49.607 52.7504ZM152.393 147.25C151.821 146.678 151.071 146.392 150.321 146.392C149.572 146.392 148.822 146.678 148.25 147.25C147.978 147.522 147.762 147.845 147.615 148.2C147.468 148.556 147.392 148.937 147.392 149.321C147.392 149.706 147.468 150.087 147.615 150.442C147.762 150.798 147.978 151.121 148.25 151.393L156.136 159.279C157.566 157.948 158.948 156.566 160.28 155.136L152.393 147.25Z" fill="#B5ADB6"/>
</g>
<path d="M100.5 186.469C77.4035 186.469 55.689 177.475 39.3574 161.143C23.0257 144.811 14.0312 123.096 14.0312 100C14.0312 76.9035 23.0253 55.1891 39.3574 38.8574C55.6894 22.5258 77.4035 13.5312 100.5 13.5312C123.596 13.5312 145.311 22.5254 161.643 38.8574C177.974 55.1895 186.969 76.9035 186.969 100C186.969 123.096 177.975 144.811 161.643 161.143C145.311 177.474 123.596 186.469 100.5 186.469ZM100.5 19.3906C56.0515 19.3906 19.8906 55.552 19.8906 100C19.8906 144.448 56.0515 180.609 100.5 180.609C144.948 180.609 181.109 144.448 181.109 100C181.109 55.552 144.948 19.3906 100.5 19.3906Z" fill="#0F9283"/>
<path d="M103.93 181.221V170.03C103.93 168.412 102.618 167.1 101 167.1C100.223 167.1 99.4778 167.409 98.9284 167.958C98.379 168.508 98.0703 169.253 98.0703 170.03V181.221C99.0434 181.255 100.019 181.279 101 181.279C101.981 181.279 102.957 181.255 103.93 181.221ZM181.941 97.3496H178.867C177.249 97.3496 175.938 98.6609 175.938 100.279C175.938 101.898 177.249 103.209 178.867 103.209H181.941C181.976 102.236 182 101.261 182 100.279C182 99.298 181.976 98.3227 181.941 97.3496ZM26.0625 100.279C26.0625 99.5023 25.7538 98.7571 25.2044 98.2077C24.655 97.6583 23.9098 97.3496 23.1328 97.3496H20.0586C20.0238 98.3227 20 99.298 20 100.279C20 101.261 20.0238 102.236 20.0586 103.209H23.1328C23.9098 103.209 24.655 102.9 25.2044 102.351C25.7538 101.801 26.0625 101.056 26.0625 100.279ZM53.7504 147.529C53.2009 146.98 52.4558 146.671 51.6789 146.671C50.902 146.671 50.1569 146.98 49.6074 147.529L41.7211 155.415C43.0524 156.845 44.4344 158.227 45.8645 159.559L53.7508 151.672C54.3001 151.123 54.6087 150.378 54.6086 149.601C54.6085 148.824 54.2998 148.078 53.7504 147.529ZM148.25 53.0297C148.822 53.6016 149.572 53.8875 150.321 53.8875C151.071 53.8875 151.821 53.6016 152.393 53.0297L160.28 45.1434C158.949 43.7132 157.567 42.3312 156.136 41L148.25 48.8863C147.978 49.1584 147.762 49.4813 147.615 49.8368C147.468 50.1922 147.392 50.5732 147.392 50.9579C147.392 51.3427 147.467 51.7237 147.615 52.0791C147.762 52.4346 147.978 52.7576 148.25 53.0297ZM152.393 147.529C151.844 146.979 151.098 146.671 150.321 146.671C149.544 146.671 148.799 146.979 148.25 147.529C147.7 148.078 147.391 148.824 147.391 149.601C147.391 150.378 147.7 151.123 148.25 151.672L156.136 159.559C157.566 158.227 158.948 156.845 160.279 155.415L152.393 147.529ZM49.607 53.0297C50.1789 53.6016 50.9289 53.8875 51.6785 53.8875C52.4281 53.8875 53.1781 53.6016 53.75 53.0297C54.0221 52.7576 54.2379 52.4347 54.3851 52.0792C54.5324 51.7237 54.6082 51.3428 54.6082 50.958C54.6082 50.5733 54.5324 50.1923 54.3851 49.8368C54.2379 49.4814 54.0221 49.1584 53.75 48.8863L45.8637 41C44.4336 42.3313 43.0516 43.7133 41.7203 45.1434L49.607 53.0297Z" fill="#B5ADB6"/>
</g>
<defs>
<clipPath id="clip0_26_4">
<rect width="200" height="200" fill="white" transform="translate(0.5)"/>
</clipPath>
<clipPath id="clip1_26_4">
<rect width="58" height="51" fill="white" transform="translate(72 19)"/>
</clipPath>
</defs>
</svg>
