<svg width="257" height="71" viewBox="0 0 257 71" fill="none" xmlns="http://www.w3.org/2000/svg">
<path d="M231.653 132.28C230.005 136.425 225.424 139.224 218.447 140.691C211.48 142.156 202.177 142.28 191.184 141.124C169.201 138.811 140.502 131.38 110.303 119.377C80.1044 107.373 54.1359 93.0745 36.5632 79.6648C27.7757 72.9591 21.0969 66.4826 17.0366 60.6339C12.9711 54.7777 11.5612 49.5973 13.2085 45.453C14.8557 41.3087 19.4373 38.5098 26.4137 37.0425C33.3812 35.5771 42.6837 35.4529 53.6768 36.6096C75.6602 38.9227 104.359 46.3531 134.558 58.3567C164.757 70.3602 190.725 84.6588 208.298 98.0684C217.085 104.774 223.764 111.251 227.825 117.099C231.89 122.956 233.3 128.136 231.653 132.28Z" stroke="white" stroke-opacity="0.15" stroke-width="0.388542"/>
<path d="M243.851 101.59C242.204 105.734 237.622 108.533 230.646 110C223.679 111.465 214.376 111.59 203.383 110.433C181.4 108.12 152.701 100.689 122.502 88.6859C92.3031 76.6823 66.3346 62.3838 48.7619 48.9741C39.9744 42.2684 33.2956 35.7919 29.2353 29.9431C25.1699 24.087 23.7599 18.9065 25.4072 14.7623C27.0545 10.618 31.6361 7.81902 38.6124 6.35178C45.5799 4.88639 54.8824 4.76213 65.8755 5.91882C87.8589 8.23191 116.557 15.6624 146.756 27.6659C176.955 39.6695 202.924 53.968 220.497 67.3777C229.284 74.0834 235.963 80.5599 240.023 86.4087C244.089 92.2648 245.499 97.4452 243.851 101.59Z" stroke="white" stroke-opacity="0.15" stroke-width="0.388542"/>
</svg>
