<svg width="17" height="16" viewBox="0 0 17 16" fill="none" xmlns="http://www.w3.org/2000/svg">
<path fill-rule="evenodd" clip-rule="evenodd" d="M2.83337 6.87851C2.83337 3.81193 5.39596 1.33333 8.49567 1.33333C11.6041 1.33333 14.1667 3.81193 14.1667 6.87851C14.1667 8.42379 13.6047 9.85842 12.6797 11.0744C11.6592 12.4157 10.4015 13.5843 8.98574 14.5016C8.66172 14.7136 8.36929 14.7296 8.01367 14.5016C6.58986 13.5843 5.3321 12.4157 4.32037 11.0744C3.3947 9.85842 2.83337 8.42379 2.83337 6.87851ZM6.62953 7.05117C6.62953 8.07847 7.46781 8.88645 8.49567 8.88645C9.5242 8.88645 10.3706 8.07847 10.3706 7.05117C10.3706 6.03186 9.5242 5.18455 8.49567 5.18455C7.46781 5.18455 6.62953 6.03186 6.62953 7.05117Z" fill="white"/>
</svg>
