<svg width="48" height="44" viewBox="0 0 48 44" fill="none" xmlns="http://www.w3.org/2000/svg">
<g clip-path="url(#clip0_4045_378)">
<rect width="48" height="48" rx="10.2857" fill="#FFF2F4"/>
<mask id="mask0_4045_378" style="mask-type:alpha" maskUnits="userSpaceOnUse" x="-64" y="-8" width="138" height="87">
<rect x="74" y="78.7427" width="138" height="86.7429" rx="4.73143" transform="rotate(180 74 78.7427)" fill="url(#paint0_linear_4045_378)"/>
</mask>
<g mask="url(#mask0_4045_378)">
<circle cx="2.43713" cy="20.98" r="29.7686" transform="rotate(180 2.43713 20.98)" fill="url(#paint1_linear_4045_378)" fill-opacity="0.5"/>
</g>
<mask id="mask1_4045_378" style="mask-type:alpha" maskUnits="userSpaceOnUse" x="-64" y="-8" width="138" height="87">
<rect x="74" y="78.7427" width="138" height="86.7429" rx="4.73143" transform="rotate(180 74 78.7427)" fill="url(#paint2_linear_4045_378)"/>
</mask>
<g mask="url(#mask1_4045_378)">
<circle cx="31.2287" cy="33.6056" r="20.3057" transform="rotate(154.912 31.2287 33.6056)" fill="url(#paint3_linear_4045_378)" fill-opacity="0.5"/>
</g>
<mask id="mask2_4045_378" style="mask-type:alpha" maskUnits="userSpaceOnUse" x="-64" y="-8" width="138" height="87">
<rect x="74" y="78.7427" width="138" height="86.7429" rx="4.73143" transform="rotate(180 74 78.7427)" fill="url(#paint4_linear_4045_378)"/>
</mask>
<g mask="url(#mask2_4045_378)">
<circle cx="24.6201" cy="24.6312" r="17.092" transform="rotate(4.47637 24.6201 24.6312)" fill="url(#paint5_linear_4045_378)" fill-opacity="0.5"/>
</g>
<mask id="mask3_4045_378" style="mask-type:alpha" maskUnits="userSpaceOnUse" x="-64" y="-8" width="138" height="87">
<rect x="74" y="78.7427" width="138" height="86.7429" rx="4.73143" transform="rotate(180 74 78.7427)" fill="url(#paint6_linear_4045_378)"/>
</mask>
<g mask="url(#mask3_4045_378)">
<circle cx="44.4285" cy="21.1772" r="29.1771" transform="rotate(39.8801 44.4285 21.1772)" fill="url(#paint7_linear_4045_378)" fill-opacity="0.5"/>
</g>
<g clip-path="url(#clip1_4045_378)">
<path d="M24.0004 35.0002C17.6884 35.0002 12.5718 29.8836 12.5718 23.5716C12.5718 17.2596 17.6884 12.1431 24.0004 12.1431C25.7749 12.1417 27.5252 12.5542 29.1123 13.3478C30.6995 14.1414 32.0797 15.2941 33.1433 16.7145H30.0461C28.7264 15.5508 27.0989 14.7926 25.3589 14.531C23.619 14.2693 21.8405 14.5152 20.2369 15.2393C18.6332 15.9634 17.2726 17.1348 16.3182 18.613C15.3638 20.0912 14.8563 21.8134 14.8564 23.5729C14.8566 25.3324 15.3644 27.0545 16.319 28.5326C17.2737 30.0106 18.6345 31.1818 20.2382 31.9056C21.842 32.6294 23.6205 32.8751 25.3605 32.6131C27.1004 32.3512 28.7277 31.5927 30.0473 30.4288H33.1444C32.0807 31.8493 30.7003 33.0022 29.113 33.7957C27.5256 34.5893 25.7751 35.0017 24.0004 35.0002ZM32.0004 28.1431V24.7145H22.8576V22.4288H32.0004V19.0002L37.7147 23.5716L32.0004 28.1431Z" fill="#C0001A"/>
</g>
</g>
<defs>
<linearGradient id="paint0_linear_4045_378" x1="74" y1="165.486" x2="212" y2="78.7427" gradientUnits="userSpaceOnUse">
<stop stop-color="#0968E5"/>
<stop offset="0.492708" stop-color="#0941AB"/>
<stop offset="1" stop-color="#091970"/>
</linearGradient>
<linearGradient id="paint1_linear_4045_378" x1="22.2828" y1="-3.01951" x2="-7.48573" y2="21.2107" gradientUnits="userSpaceOnUse">
<stop stop-color="white"/>
<stop offset="1" stop-color="white" stop-opacity="0"/>
</linearGradient>
<linearGradient id="paint2_linear_4045_378" x1="74" y1="165.486" x2="212" y2="78.7427" gradientUnits="userSpaceOnUse">
<stop stop-color="#0968E5"/>
<stop offset="0.492708" stop-color="#0941AB"/>
<stop offset="1" stop-color="#091970"/>
</linearGradient>
<linearGradient id="paint3_linear_4045_378" x1="22.1602" y1="13.2999" x2="31.4259" y2="36.3656" gradientUnits="userSpaceOnUse">
<stop stop-color="white"/>
<stop offset="1" stop-color="white" stop-opacity="0"/>
</linearGradient>
<linearGradient id="paint4_linear_4045_378" x1="74" y1="165.486" x2="212" y2="78.7427" gradientUnits="userSpaceOnUse">
<stop stop-color="#0968E5"/>
<stop offset="0.492708" stop-color="#0941AB"/>
<stop offset="1" stop-color="#091970"/>
</linearGradient>
<linearGradient id="paint5_linear_4045_378" x1="24.6201" y1="7.53919" x2="23.6571" y2="28.0015" gradientUnits="userSpaceOnUse">
<stop stop-color="white"/>
<stop offset="1" stop-color="white" stop-opacity="0"/>
</linearGradient>
<linearGradient id="paint6_linear_4045_378" x1="74" y1="165.486" x2="212" y2="78.7427" gradientUnits="userSpaceOnUse">
<stop stop-color="#0968E5"/>
<stop offset="0.492708" stop-color="#0941AB"/>
<stop offset="1" stop-color="#091970"/>
</linearGradient>
<linearGradient id="paint7_linear_4045_378" x1="44.4285" y1="-7.99996" x2="41.7532" y2="21.3573" gradientUnits="userSpaceOnUse">
<stop stop-color="white"/>
<stop offset="1" stop-color="white" stop-opacity="0"/>
</linearGradient>
<clipPath id="clip0_4045_378">
<rect width="48" height="48" rx="10.2857" fill="white"/>
</clipPath>
<clipPath id="clip1_4045_378">
<rect width="27.4286" height="27.4286" fill="white" transform="translate(10.2861 9.85742)"/>
</clipPath>
</defs>
</svg>
