<svg width="48" height="48" viewBox="0 0 48 48" fill="none" xmlns="http://www.w3.org/2000/svg">
<g clip-path="url(#clip0_4045_122)">
<rect width="48" height="48" rx="10.2857" fill="#F0FDFA"/>
<mask id="mask0_4045_122" style="mask-type:alpha" maskUnits="userSpaceOnUse" x="-64" y="-8" width="138" height="87">
<rect x="74" y="78.7427" width="138" height="86.7429" rx="4.73143" transform="rotate(180 74 78.7427)" fill="url(#paint0_linear_4045_122)"/>
</mask>
<g mask="url(#mask0_4045_122)">
<circle cx="2.43713" cy="20.98" r="29.7686" transform="rotate(180 2.43713 20.98)" fill="url(#paint1_linear_4045_122)" fill-opacity="0.5"/>
</g>
<mask id="mask1_4045_122" style="mask-type:alpha" maskUnits="userSpaceOnUse" x="-64" y="-8" width="138" height="87">
<rect x="74" y="78.7427" width="138" height="86.7429" rx="4.73143" transform="rotate(180 74 78.7427)" fill="url(#paint2_linear_4045_122)"/>
</mask>
<g mask="url(#mask1_4045_122)">
<circle cx="31.2287" cy="33.6056" r="20.3057" transform="rotate(154.912 31.2287 33.6056)" fill="url(#paint3_linear_4045_122)" fill-opacity="0.5"/>
</g>
<mask id="mask2_4045_122" style="mask-type:alpha" maskUnits="userSpaceOnUse" x="-64" y="-8" width="138" height="87">
<rect x="74" y="78.7427" width="138" height="86.7429" rx="4.73143" transform="rotate(180 74 78.7427)" fill="url(#paint4_linear_4045_122)"/>
</mask>
<g mask="url(#mask2_4045_122)">
<circle cx="24.6201" cy="24.6312" r="17.092" transform="rotate(4.47637 24.6201 24.6312)" fill="url(#paint5_linear_4045_122)" fill-opacity="0.5"/>
</g>
<mask id="mask3_4045_122" style="mask-type:alpha" maskUnits="userSpaceOnUse" x="-64" y="-8" width="138" height="87">
<rect x="74" y="78.7427" width="138" height="86.7429" rx="4.73143" transform="rotate(180 74 78.7427)" fill="url(#paint6_linear_4045_122)"/>
</mask>
<g mask="url(#mask3_4045_122)">
<circle cx="44.4285" cy="21.1772" r="29.1771" transform="rotate(39.8801 44.4285 21.1772)" fill="url(#paint7_linear_4045_122)" fill-opacity="0.5"/>
</g>
<path fill-rule="evenodd" clip-rule="evenodd" d="M27.1281 13.0137H19.5246C17.1715 13.0137 15.1429 14.9211 15.1429 17.2754V29.5188C15.1429 32.0057 17.0389 33.9885 19.5246 33.9885H28.6549C31.0092 33.9885 32.9166 31.8742 32.9166 29.5188V19.0434L27.1281 13.0137Z" stroke="#0F9283" stroke-width="1.5" stroke-linecap="round" stroke-linejoin="round"/>
<path d="M26.8279 13.0005V16.3251C26.8279 17.9479 28.141 19.2645 29.7627 19.2679C31.2679 19.2713 32.8073 19.2725 32.9113 19.2656" stroke="#0F9283" stroke-width="1.5" stroke-linecap="round" stroke-linejoin="round"/>
<path d="M26.6107 27.6378H20.4427" stroke="#0F9283" stroke-width="1.5" stroke-linecap="round" stroke-linejoin="round"/>
<path d="M24.2776 21.9782H20.4421" stroke="#0F9283" stroke-width="1.5" stroke-linecap="round" stroke-linejoin="round"/>
</g>
<defs>
<linearGradient id="paint0_linear_4045_122" x1="74" y1="165.486" x2="212" y2="78.7427" gradientUnits="userSpaceOnUse">
<stop stop-color="#0968E5"/>
<stop offset="0.492708" stop-color="#0941AB"/>
<stop offset="1" stop-color="#091970"/>
</linearGradient>
<linearGradient id="paint1_linear_4045_122" x1="22.2828" y1="-3.01951" x2="-7.48573" y2="21.2107" gradientUnits="userSpaceOnUse">
<stop stop-color="white"/>
<stop offset="1" stop-color="white" stop-opacity="0"/>
</linearGradient>
<linearGradient id="paint2_linear_4045_122" x1="74" y1="165.486" x2="212" y2="78.7427" gradientUnits="userSpaceOnUse">
<stop stop-color="#0968E5"/>
<stop offset="0.492708" stop-color="#0941AB"/>
<stop offset="1" stop-color="#091970"/>
</linearGradient>
<linearGradient id="paint3_linear_4045_122" x1="22.1602" y1="13.2999" x2="31.4259" y2="36.3656" gradientUnits="userSpaceOnUse">
<stop stop-color="white"/>
<stop offset="1" stop-color="white" stop-opacity="0"/>
</linearGradient>
<linearGradient id="paint4_linear_4045_122" x1="74" y1="165.486" x2="212" y2="78.7427" gradientUnits="userSpaceOnUse">
<stop stop-color="#0968E5"/>
<stop offset="0.492708" stop-color="#0941AB"/>
<stop offset="1" stop-color="#091970"/>
</linearGradient>
<linearGradient id="paint5_linear_4045_122" x1="24.6201" y1="7.53919" x2="23.6571" y2="28.0015" gradientUnits="userSpaceOnUse">
<stop stop-color="white"/>
<stop offset="1" stop-color="white" stop-opacity="0"/>
</linearGradient>
<linearGradient id="paint6_linear_4045_122" x1="74" y1="165.486" x2="212" y2="78.7427" gradientUnits="userSpaceOnUse">
<stop stop-color="#0968E5"/>
<stop offset="0.492708" stop-color="#0941AB"/>
<stop offset="1" stop-color="#091970"/>
</linearGradient>
<linearGradient id="paint7_linear_4045_122" x1="44.4285" y1="-7.99996" x2="41.7532" y2="21.3573" gradientUnits="userSpaceOnUse">
<stop stop-color="white"/>
<stop offset="1" stop-color="white" stop-opacity="0"/>
</linearGradient>
<clipPath id="clip0_4045_122">
<rect width="48" height="48" rx="10.2857" fill="white"/>
</clipPath>
</defs>
</svg>
