<svg width="60" height="60" viewBox="0 0 60 60" fill="none" xmlns="http://www.w3.org/2000/svg">
<rect width="60" height="60" fill="#E8E8E8"/>
<path d="M30 25.5556C31.0214 25.5556 32.0328 25.3544 32.9764 24.9635C33.9201 24.5726 34.7775 23.9997 35.4997 23.2775C36.222 22.5553 36.7949 21.6978 37.1857 20.7542C37.5766 19.8106 37.7778 18.7992 37.7778 17.7778C37.7778 16.7564 37.5766 15.745 37.1857 14.8014C36.7949 13.8577 36.222 13.0003 35.4997 12.2781C34.7775 11.5558 33.9201 10.9829 32.9764 10.592C32.0328 10.2012 31.0214 10 30 10C27.9372 10 25.9589 10.8194 24.5003 12.2781C23.0417 13.7367 22.2222 15.715 22.2222 17.7778C22.2222 19.8406 23.0417 21.8189 24.5003 23.2775C25.9589 24.7361 27.9372 25.5556 30 25.5556ZM10 48.6667V50H50V48.6667C50 43.6889 50 41.2 49.0311 39.2978C48.1789 37.6253 46.8191 36.2655 45.1467 35.4133C43.2444 34.4444 40.7556 34.4444 35.7778 34.4444H24.2222C19.2444 34.4444 16.7556 34.4444 14.8533 35.4133C13.1809 36.2655 11.8211 37.6253 10.9689 39.2978C10 41.2 10 43.6889 10 48.6667Z" fill="#15AC97" stroke="#15AC97" stroke-width="4" stroke-linecap="round" stroke-linejoin="round"/>
</svg>
