<svg width="21" height="20" viewBox="0 0 21 20" fill="none" xmlns="http://www.w3.org/2000/svg">
<path fill-rule="evenodd" clip-rule="evenodd" d="M11.3391 1.44083L13.6551 6.09983C13.7711 6.33483 13.9951 6.49883 14.2551 6.53683L19.4401 7.28583C19.6501 7.31383 19.8391 7.42383 19.9681 7.59183C20.2101 7.90683 20.1731 8.35283 19.8831 8.62383L16.1251 12.2578C15.9341 12.4378 15.8491 12.7018 15.8991 12.9588L16.7991 18.0868C16.8621 18.5118 16.5721 18.9098 16.1471 18.9788C15.9711 19.0058 15.7911 18.9778 15.6311 18.8988L11.0131 16.4778C10.7811 16.3518 10.5031 16.3518 10.2711 16.4778L5.61913 18.9118C5.23013 19.1098 4.75413 18.9628 4.54213 18.5818C4.46113 18.4278 4.43313 18.2528 4.46113 18.0818L5.36113 12.9538C5.40613 12.6978 5.32113 12.4348 5.13513 12.2538L1.35713 8.62083C1.04913 8.31483 1.04713 7.81683 1.35413 7.50883C1.35513 7.50783 1.35613 7.50583 1.35713 7.50483C1.48413 7.38983 1.64013 7.31283 1.80913 7.28283L6.99513 6.53383C7.25413 6.49283 7.47713 6.33083 7.59513 6.09583L9.90913 1.44083C10.0021 1.25183 10.1671 1.10683 10.3671 1.04083C10.5681 0.97383 10.7881 0.98983 10.9771 1.08483C11.1321 1.16183 11.2591 1.28683 11.3391 1.44083Z" stroke="#15AC97" stroke-width="1.5" stroke-linecap="round" stroke-linejoin="round"/>
</svg>
