<svg width="48" height="48" viewBox="0 0 48 48" fill="none" xmlns="http://www.w3.org/2000/svg">
<g clip-path="url(#clip0_4045_1575)">
<rect width="48" height="48" rx="10.2857" fill="#F0FDFA"/>
<mask id="mask0_4045_1575" style="mask-type:alpha" maskUnits="userSpaceOnUse" x="-64" y="-8" width="138" height="87">
<rect x="74" y="78.7427" width="138" height="86.7429" rx="4.73143" transform="rotate(180 74 78.7427)" fill="url(#paint0_linear_4045_1575)"/>
</mask>
<g mask="url(#mask0_4045_1575)">
<circle cx="2.43713" cy="20.98" r="29.7686" transform="rotate(180 2.43713 20.98)" fill="url(#paint1_linear_4045_1575)" fill-opacity="0.5"/>
</g>
<mask id="mask1_4045_1575" style="mask-type:alpha" maskUnits="userSpaceOnUse" x="-64" y="-8" width="138" height="87">
<rect x="74" y="78.7427" width="138" height="86.7429" rx="4.73143" transform="rotate(180 74 78.7427)" fill="url(#paint2_linear_4045_1575)"/>
</mask>
<g mask="url(#mask1_4045_1575)">
<circle cx="31.2287" cy="33.6056" r="20.3057" transform="rotate(154.912 31.2287 33.6056)" fill="url(#paint3_linear_4045_1575)" fill-opacity="0.5"/>
</g>
<mask id="mask2_4045_1575" style="mask-type:alpha" maskUnits="userSpaceOnUse" x="-64" y="-8" width="138" height="87">
<rect x="74" y="78.7427" width="138" height="86.7429" rx="4.73143" transform="rotate(180 74 78.7427)" fill="url(#paint4_linear_4045_1575)"/>
</mask>
<g mask="url(#mask2_4045_1575)">
<circle cx="24.6201" cy="24.6312" r="17.092" transform="rotate(4.47637 24.6201 24.6312)" fill="url(#paint5_linear_4045_1575)" fill-opacity="0.5"/>
</g>
<mask id="mask3_4045_1575" style="mask-type:alpha" maskUnits="userSpaceOnUse" x="-64" y="-8" width="138" height="87">
<rect x="74" y="78.7427" width="138" height="86.7429" rx="4.73143" transform="rotate(180 74 78.7427)" fill="url(#paint6_linear_4045_1575)"/>
</mask>
<g mask="url(#mask3_4045_1575)">
<circle cx="44.4285" cy="21.1772" r="29.1771" transform="rotate(39.8801 44.4285 21.1772)" fill="url(#paint7_linear_4045_1575)" fill-opacity="0.5"/>
</g>
<path fill-rule="evenodd" clip-rule="evenodd" d="M24.8166 13.7899L27.4634 19.1145C27.596 19.3831 27.852 19.5705 28.1491 19.6139L34.0749 20.4699C34.3149 20.5019 34.5309 20.6277 34.6783 20.8197C34.9549 21.1797 34.9126 21.6894 34.5811 21.9991L30.2863 26.1522C30.068 26.3579 29.9709 26.6597 30.028 26.9534L31.0566 32.8139C31.1286 33.2997 30.7971 33.7545 30.3114 33.8334C30.1103 33.8642 29.9046 33.8322 29.7217 33.7419L24.444 30.9751C24.1789 30.8311 23.8611 30.8311 23.596 30.9751L18.2794 33.7568C17.8349 33.9831 17.2909 33.8151 17.0486 33.3797C16.956 33.2037 16.924 33.0037 16.956 32.8082L17.9846 26.9477C18.036 26.6551 17.9389 26.3545 17.7263 26.1477L13.4086 21.9957C13.0566 21.6459 13.0543 21.0768 13.4051 20.7248C13.4063 20.7237 13.4074 20.7214 13.4086 20.7202C13.5537 20.5888 13.732 20.5008 13.9251 20.4665L19.852 19.6105C20.148 19.5637 20.4029 19.3785 20.5377 19.1099L23.1823 13.7899C23.2886 13.5739 23.4771 13.4082 23.7057 13.3328C23.9354 13.2562 24.1869 13.2745 24.4029 13.3831C24.58 13.4711 24.7251 13.6139 24.8166 13.7899Z" stroke="#0F9283" stroke-width="1.5" stroke-linecap="round" stroke-linejoin="round"/>
</g>
<defs>
<linearGradient id="paint0_linear_4045_1575" x1="74" y1="165.486" x2="212" y2="78.7427" gradientUnits="userSpaceOnUse">
<stop stop-color="#0968E5"/>
<stop offset="0.492708" stop-color="#0941AB"/>
<stop offset="1" stop-color="#091970"/>
</linearGradient>
<linearGradient id="paint1_linear_4045_1575" x1="22.2828" y1="-3.01951" x2="-7.48573" y2="21.2107" gradientUnits="userSpaceOnUse">
<stop stop-color="white"/>
<stop offset="1" stop-color="white" stop-opacity="0"/>
</linearGradient>
<linearGradient id="paint2_linear_4045_1575" x1="74" y1="165.486" x2="212" y2="78.7427" gradientUnits="userSpaceOnUse">
<stop stop-color="#0968E5"/>
<stop offset="0.492708" stop-color="#0941AB"/>
<stop offset="1" stop-color="#091970"/>
</linearGradient>
<linearGradient id="paint3_linear_4045_1575" x1="22.1602" y1="13.2999" x2="31.4259" y2="36.3656" gradientUnits="userSpaceOnUse">
<stop stop-color="white"/>
<stop offset="1" stop-color="white" stop-opacity="0"/>
</linearGradient>
<linearGradient id="paint4_linear_4045_1575" x1="74" y1="165.486" x2="212" y2="78.7427" gradientUnits="userSpaceOnUse">
<stop stop-color="#0968E5"/>
<stop offset="0.492708" stop-color="#0941AB"/>
<stop offset="1" stop-color="#091970"/>
</linearGradient>
<linearGradient id="paint5_linear_4045_1575" x1="24.6201" y1="7.53919" x2="23.6571" y2="28.0015" gradientUnits="userSpaceOnUse">
<stop stop-color="white"/>
<stop offset="1" stop-color="white" stop-opacity="0"/>
</linearGradient>
<linearGradient id="paint6_linear_4045_1575" x1="74" y1="165.486" x2="212" y2="78.7427" gradientUnits="userSpaceOnUse">
<stop stop-color="#0968E5"/>
<stop offset="0.492708" stop-color="#0941AB"/>
<stop offset="1" stop-color="#091970"/>
</linearGradient>
<linearGradient id="paint7_linear_4045_1575" x1="44.4285" y1="-7.99996" x2="41.7532" y2="21.3573" gradientUnits="userSpaceOnUse">
<stop stop-color="white"/>
<stop offset="1" stop-color="white" stop-opacity="0"/>
</linearGradient>
<clipPath id="clip0_4045_1575">
<rect width="48" height="48" rx="10.2857" fill="white"/>
</clipPath>
</defs>
</svg>
